<svg width="62" height="58" viewBox="0 0 62 58" fill="none" xmlns="http://www.w3.org/2000/svg">
<path d="M45 34V26H41V25C41 23.3462 39.6538 22 38 22H36V20C36 18.897 35.103 18 34 18H32V14.5142C32.0659 14.6001 32.1348 14.688 32.1919 14.7622C33.334 16.2402 34.3198 17.5132 35.5049 16.8262C36.7041 16.1279 36.0552 14.5342 35.3672 12.8452C35.1709 12.3628 34.8701 11.625 34.7559 11.1841C35.1831 11.0718 35.9321 10.9712 36.4229 10.9048C38.2632 10.6582 40 10.4248 40 9.00001C40 7.57521 38.2632 7.34083 36.4229 7.09425C35.9321 7.02785 35.1831 6.92677 34.7568 6.81593C34.8711 6.37501 35.1719 5.63722 35.3682 5.15382C36.0562 3.46583 36.7041 1.87013 35.5049 1.17384C34.3232 0.482925 33.334 1.7588 32.1929 3.23683C31.855 3.67384 31.334 4.35011 31 4.66701C30.666 4.35109 30.145 3.67482 29.8081 3.23781C28.666 1.75978 27.6792 0.484878 26.4951 1.17384C25.2959 1.87209 25.9448 3.46583 26.6328 5.1548C26.8291 5.63722 27.1299 6.37501 27.2441 6.81593C26.8169 6.92824 26.0679 7.02882 25.5771 7.09523C23.7368 7.34181 22 7.57521 22 9.00001C22 10.4248 23.7368 10.6592 25.5771 10.9058C26.0679 10.9722 26.8169 11.0733 27.2432 11.1841C27.1289 11.625 26.8281 12.3628 26.6318 12.8462C25.9438 14.5342 25.2959 16.1299 26.4951 16.8262C26.7231 16.959 26.9429 17.0191 27.1592 17.0181C28.0649 17.0181 28.8862 15.9561 29.8062 14.7622C29.8638 14.687 29.9331 14.5991 29.999 14.5132V18H27.999C26.896 18 25.999 18.897 25.999 20V22H23.999C22.3452 22 20.999 23.3462 20.999 25V26H16.999V36H0V58H62V34H45ZM28.8071 12.7959C29.249 11.6538 29.4829 10.7832 29.0928 10.1079C28.6831 9.39503 27.729 9.188 26.4048 9.00099C27.729 8.813 28.6831 8.60695 29.0928 7.89406C29.4829 7.21779 29.249 6.34621 28.8062 5.20509C29.5532 6.13087 30.2158 6.78615 31 6.78615C31.7842 6.78615 32.4468 6.13185 33.1929 5.20607C32.751 6.34816 32.5171 7.21925 32.9072 7.89406C33.3169 8.60695 34.271 8.81398 35.5952 9.00099C34.271 9.18898 33.3169 9.39503 32.9072 10.1079C32.5171 10.7842 32.751 11.6558 33.1938 12.7969C32.4468 11.8711 31.7842 11.2158 31 11.2158C30.2158 11.2158 29.5532 11.8701 28.8071 12.7959ZM28 20H34V22H28V20ZM23 25C23 24.4492 23.4482 24 24 24H38C38.5518 24 39 24.4492 39 25V26H23V25ZM28 28H34V35L31 32.75L28 35V28ZM26 28V39L31 35.25L36 39V28H43V56H19V28H26ZM2 38H17V56H2V38ZM60 56H45V36H60V56Z" fill="#FE3861"/>
</svg>
