<svg width="64" height="64" viewBox="0 0 64 64" fill="none" xmlns="http://www.w3.org/2000/svg">
<g clip-path="url(#clip0)">
<path d="M38.7505 24.5C32.6851 24.5 27.7505 29.4346 27.7505 35.5C27.7505 41.5654 32.6851 46.5 38.7505 46.5C44.8159 46.5 49.7505 41.5654 49.7505 35.5C49.7505 29.4346 44.8159 24.5 38.7505 24.5ZM38.7505 44C34.0635 44 30.2505 40.187 30.2505 35.5C30.2505 30.813 34.0635 27 38.7505 27C43.4375 27 47.2505 30.813 47.2505 35.5C47.2505 40.187 43.4375 44 38.7505 44Z" fill="#FE3861"/>
<path d="M38.7505 29.8755C38.0601 29.8755 37.5005 30.4351 37.5005 31.1255C37.5005 31.8159 38.0601 32.3755 38.7505 32.3755C40.4731 32.3755 41.875 33.7773 41.875 35.5C41.875 36.1904 42.4346 36.75 43.125 36.75C43.8154 36.75 44.375 36.1904 44.375 35.5C44.375 32.3984 41.8521 29.8755 38.7505 29.8755Z" fill="#FE3861"/>
<path d="M7.70558 12.9253C7.38819 12.3125 6.63429 12.0727 6.02101 12.3896C5.40772 12.707 5.16798 13.4614 5.48536 14.0747L8.85011 20.5747C9.06788 20.9956 9.50831 21.2529 9.97901 21.25C10.4526 21.2427 10.8818 20.9683 11.0869 20.541L13.124 16.2998L15.3364 20.5747C15.5518 20.9897 15.98 21.25 16.4468 21.25H16.4653C16.9395 21.2427 17.3682 20.9683 17.5737 20.541L20.6953 14.041C20.9941 13.4189 20.7319 12.6719 20.1099 12.373C19.4873 12.0742 18.7407 12.3364 18.4419 12.959L16.4048 17.2002L14.1919 12.9253C13.9741 12.5044 13.5347 12.2461 13.0635 12.25C12.5894 12.2573 12.1602 12.5317 11.9551 12.959L9.91847 17.2002L7.70558 12.9253Z" fill="#FE3861"/>
<path d="M15.7485 6C16.0776 6 16.3999 5.86621 16.6323 5.63379C16.8652 5.40137 16.9985 5.07861 16.9985 4.75C16.9985 4.42139 16.8652 4.09863 16.6323 3.86621C16.3999 3.63379 16.0776 3.5 15.7485 3.5C15.4199 3.5 15.0977 3.63379 14.8652 3.86621C14.6323 4.09863 14.4985 4.42139 14.4985 4.75C14.4985 5.07861 14.6323 5.40137 14.8652 5.63379C15.0977 5.86621 15.4199 6 15.7485 6Z" fill="#FE3861"/>
<path d="M64 25V8.5C64 5.74316 61.7568 3.5 59 3.5H20.9985C20.3086 3.5 19.7485 4.05957 19.7485 4.75C19.7485 5.44043 20.3086 6 20.9985 6H59C60.3784 6 61.5 7.12158 61.5 8.5V25C61.5 26.3784 60.3784 27.5 59 27.5H53C52.9639 27.5 52.9287 27.5024 52.8936 27.5054C50.9644 24.106 47.8457 21.4673 44.1069 20.1582L45.96 16.3003L48.1729 20.5747C48.3877 20.9902 48.8159 21.25 49.2827 21.25H49.3018C49.7754 21.2427 50.2046 20.9683 50.4097 20.541L53.5312 14.041C53.8301 13.4189 53.5679 12.6724 52.9458 12.3735C52.3237 12.0742 51.5767 12.3364 51.2778 12.959L49.2412 17.2002L47.0283 12.9253C46.8105 12.5044 46.3716 12.2461 45.8994 12.2505C45.4253 12.2573 44.9966 12.5317 44.7915 12.959L42.7544 17.2002L40.542 12.9253C40.2246 12.3125 39.4702 12.0728 38.8569 12.3901C38.2437 12.7075 38.0044 13.4614 38.3213 14.0747L41.0879 19.4189C40.3247 19.3086 39.5444 19.25 38.751 19.25C37.2144 19.25 35.7266 19.4648 34.3164 19.8652L37.1138 14.041C37.4126 13.4189 37.1504 12.6724 36.5278 12.3735C35.9058 12.0742 35.1587 12.3364 34.8604 12.959L32.8232 17.2002L30.6104 12.9253C30.3926 12.5044 29.9556 12.2461 29.4814 12.2505C29.0078 12.2573 28.5786 12.5317 28.3735 12.959L26.3369 17.2002L24.124 12.9253C23.8066 12.3125 23.0527 12.0728 22.4395 12.3901C21.8262 12.7075 21.5864 13.4614 21.9038 14.0747L25.2686 20.5747C25.4863 20.9956 25.9248 21.2529 26.3975 21.25C26.8711 21.2427 27.3003 20.9683 27.5054 20.541L29.5425 16.3003L31.7549 20.5747C31.792 20.6465 31.8374 20.7114 31.8867 20.7734C28.8213 22.208 26.2744 24.5713 24.6108 27.5H5C3.62158 27.5 2.5 26.3784 2.5 25V8.5C2.5 7.12158 3.62158 6 5 6H10.124C10.8145 6 11.374 5.44043 11.374 4.75C11.374 4.05957 10.8145 3.5 10.124 3.5H5C2.24316 3.5 0 5.74316 0 8.5V25C0 27.7573 2.24316 30 5 30H23.4595C22.8394 31.7188 22.5005 33.5703 22.5005 35.5C22.5005 44.4604 29.79 51.75 38.7505 51.75C41.6948 51.75 44.459 50.9629 46.8433 49.5879L56.7642 59.5088C57.5903 60.335 58.6758 60.748 59.7612 60.748C60.8467 60.748 61.9321 60.335 62.7583 59.5088C64.4111 57.856 64.4111 55.167 62.7583 53.5142L58.8604 49.6162C58.3721 49.1284 57.5806 49.1279 57.0928 49.6162C56.6045 50.1045 56.6045 50.8955 57.0928 51.3838L60.9907 55.2822C61.6685 55.96 61.6685 57.063 60.9907 57.7412C60.313 58.4189 59.21 58.4189 58.5322 57.7412L48.9399 48.1484C52.6333 45.1675 55.0005 40.6055 55.0005 35.5C55.0005 33.5703 54.6616 31.7188 54.0415 30H59C61.7573 30 64 27.7568 64 25ZM38.7505 49.25C31.1689 49.25 25.0005 43.0815 25.0005 35.5C25.0005 27.9185 31.1689 21.75 38.7505 21.75C46.332 21.75 52.5005 27.9185 52.5005 35.5C52.5005 43.0815 46.3325 49.25 38.7505 49.25Z" fill="#FE3861"/>
<path d="M54.1274 46.6514C53.895 46.8838 53.7612 47.2061 53.7612 47.5352C53.7612 47.8638 53.895 48.186 54.1274 48.4189C54.3613 48.6514 54.6826 48.7852 55.0112 48.7852C55.3398 48.7852 55.6626 48.6514 55.895 48.4189C56.1289 48.186 56.2612 47.8638 56.2612 47.5352C56.2612 47.2061 56.1289 46.8838 55.895 46.6514C55.6626 46.4189 55.3413 46.2852 55.0112 46.2852C54.6826 46.2852 54.3599 46.4189 54.1274 46.6514Z" fill="#FE3861"/>
</g>
<defs>
<clipPath id="clip0">
<rect width="64" height="64" fill="white"/>
</clipPath>
</defs>
</svg>
