<svg width="56" height="56" viewBox="0 0 56 56" fill="none" xmlns="http://www.w3.org/2000/svg">
<path d="M39.7987 16.8966V7.17664C39.7987 6.57256 39.3089 6.08289 38.705 6.08289H6.95352C6.34944 6.08289 5.85977 6.57256 5.85977 7.17664V16.8965C5.85977 17.5005 6.34944 17.9902 6.95352 17.9902H12.2521C12.8562 17.9902 13.3458 17.5005 13.3458 16.8965V14.5224H18.6025V17.9359C18.6025 18.5399 19.0922 19.0296 19.6963 19.0296C20.3003 19.0296 20.79 18.5399 20.79 17.9359V13.4286C20.79 12.8245 20.3003 12.3349 19.6963 12.3349H12.2522C11.6481 12.3349 11.1584 12.8245 11.1584 13.4286V15.8027H8.04727V8.27039H37.6112V15.8027H34.5001V13.4286C34.5001 12.8245 34.0103 12.3349 33.4063 12.3349H25.9622C25.3582 12.3349 24.8685 12.8245 24.8685 13.4286V32.2527C24.8685 32.8568 25.3582 33.3465 25.9622 33.3465H29.8943V37.4111H15.7642V33.3465H19.6963C20.3003 33.3465 20.79 32.8568 20.79 32.2527V27.7362C20.79 27.1321 20.3003 26.6424 19.6963 26.6424C19.0922 26.6424 18.6025 27.1321 18.6025 27.7362V31.159H14.6705C14.0664 31.159 13.5767 31.6486 13.5767 32.2527V38.5048C13.5767 39.1089 14.0664 39.5986 14.6705 39.5986H30.9879C31.5919 39.5986 32.0817 39.1089 32.0817 38.5048V32.2527C32.0817 31.6486 31.5919 31.159 30.9879 31.159H27.0559V14.5224H32.3124V16.8965C32.3124 17.5005 32.8022 17.9902 33.4062 17.9902H38.7049C39.3089 17.9903 39.7987 17.5005 39.7987 16.8966Z" fill="#FE3861"/>
<path d="M54.5951 41.5122L45.6615 38.397V2.43424C45.6615 1.12491 44.5936 0.0598145 43.281 0.0598145H2.37727C1.06641 0.0598145 0 1.12502 0 2.43424V43.2471C0 44.558 1.06641 45.6247 2.37727 45.6247H38.4229L41.5441 54.5358C41.6779 54.9203 42.0324 55.94 43.0095 55.94H43.0181C43.4509 55.9374 44.0358 55.7276 44.3648 54.7427L46.9734 46.9344L54.8002 44.3314C55.7869 44.0032 55.9972 43.4179 55.9999 42.9849C56.006 42.0006 54.9793 41.6452 54.5951 41.5122ZM2.37727 43.4373C2.2762 43.4373 2.1875 43.3485 2.1875 43.2472V2.43424C2.1875 2.33285 2.27445 2.24731 2.37727 2.24731H43.2811C43.3839 2.24731 43.4742 2.3347 43.4742 2.43424V37.6342L37.8987 35.6899C37.2518 35.4648 36.5611 35.6139 36.0964 36.0791C35.6323 36.5438 35.4841 37.2333 35.7097 37.8788C35.7098 37.8791 35.71 37.8793 35.7101 37.8795L37.6567 43.4372H2.37727V43.4373ZM46.0362 44.941C46.0032 44.9519 45.9752 44.9607 45.9514 44.9682C45.4357 45.1304 45.1714 45.3943 45.0087 45.9097C45.0011 45.9335 44.9924 45.9614 44.9815 45.9941L42.9744 52.0017L38.0966 38.0756L52.0492 42.941L46.0362 44.941Z" fill="#FE3861"/>
<path d="M19.6962 23.933C20.3003 23.933 20.79 23.4403 20.79 22.8362C20.79 22.2321 20.3003 21.7424 19.6962 21.7424C19.0922 21.7424 18.6025 22.2321 18.6025 22.8362V22.8424C18.6025 23.4464 19.0922 23.933 19.6962 23.933Z" fill="#FE3861"/>
</svg>
