<svg width="57" height="57" viewBox="0 0 57 57" fill="none" xmlns="http://www.w3.org/2000/svg">
<g clip-path="url(#clip0)">
<path d="M4.75 57H47.5C48.0246 57 48.45 56.5746 48.45 56.05V31.35H46.55V55.1H4.75C3.1761 55.1 1.9 53.8239 1.9 52.25C1.9 50.6761 3.1761 49.4 4.75 49.4H6.65C7.17463 49.4 7.6 48.9746 7.6 48.45V19.95H22.8V18.05H7.6V11.4C7.6 10.8754 7.17463 10.45 6.65 10.45H4.75C2.12776 10.4533 0.00324708 12.5778 0 15.2V52.25C0.00324708 54.8723 2.12776 56.9968 4.75 57ZM1.9 19V15.2C1.9 13.6261 3.1761 12.35 4.75 12.35H5.7V47.5H4.75C3.72207 47.4986 2.72151 47.8321 1.9 48.45V19Z" fill="#FE3861"/>
<path d="M21.85 22.8H10.45C9.92537 22.8 9.5 23.2254 9.5 23.75V31.35C9.5 31.8746 9.92537 32.3 10.45 32.3H21.85C22.3746 32.3 22.8 31.8746 22.8 31.35V28.5H26.6V26.6H22.8V23.75C22.8 23.2254 22.3746 22.8 21.85 22.8ZM20.9 30.4H11.4V24.7H20.9V30.4Z" fill="#FE3861"/>
<path d="M31.35 49.4H42.75C43.2746 49.4 43.7 48.9747 43.7 48.45V40.85C43.7 40.3254 43.2746 39.9 42.75 39.9H38V34.2H36.1V39.9H31.35C30.8254 39.9 30.4 40.3254 30.4 40.85V43.7H22.8V40.85C22.8 40.3254 22.3746 39.9 21.85 39.9H10.45C9.92537 39.9 9.5 40.3254 9.5 40.85V48.45C9.5 48.9747 9.92537 49.4 10.45 49.4H21.85C22.3746 49.4 22.8 48.9747 22.8 48.45V45.6H30.4V48.45C30.4 48.9747 30.8254 49.4 31.35 49.4ZM32.3 41.8H41.8V47.5H32.3V41.8ZM20.9 47.5H11.4V41.8H20.9V47.5Z" fill="#FE3861"/>
<path d="M40.85 7.59998C36.1278 7.59998 32.3 11.4278 32.3 16.15C32.3 20.8721 36.1278 24.7 40.85 24.7C45.5722 24.7 49.4 20.8721 49.4 16.15C49.3949 11.4301 45.5698 7.60508 40.85 7.59998ZM40.85 22.8C37.1771 22.8 34.2 19.8229 34.2 16.15C34.2 12.4771 37.1771 9.49998 40.85 9.49998C44.5229 9.49998 47.5 12.4771 47.5 16.15C47.4958 19.821 44.521 22.7958 40.85 22.8Z" fill="#FE3861"/>
<path d="M56.05 19.95C56.5746 19.95 57 19.5246 57 19V13.3C57 12.7754 56.5746 12.35 56.05 12.35H52.5891C52.3864 11.7266 52.135 11.1198 51.8376 10.5354L54.2887 8.09309C54.4673 7.91497 54.568 7.67283 54.568 7.42048C54.568 7.16814 54.4673 6.926 54.2887 6.74788L50.2549 2.71038C50.0768 2.53225 49.8351 2.43206 49.5832 2.43206C49.3314 2.43252 49.0897 2.53271 48.9116 2.7113L46.4647 5.16238C45.8802 4.86504 45.2735 4.61409 44.65 4.41091V0.95C44.65 0.425366 44.2246 0 43.7 0H38C37.4754 0 37.05 0.425366 37.05 0.95V4.41091C36.4266 4.61409 35.8198 4.86504 35.2354 5.16238L32.7922 2.7113C32.6141 2.53271 32.3724 2.43252 32.1205 2.43206C31.8686 2.43206 31.6269 2.53225 31.4488 2.71038L27.4104 6.74509C27.2318 6.92322 27.1311 7.16536 27.1311 7.4177C27.1311 7.67004 27.2318 7.91218 27.4104 8.09031L29.8615 10.5326C29.5641 11.118 29.3132 11.7256 29.1109 12.35H25.65C25.1254 12.35 24.7 12.7754 24.7 13.3V19C24.7 19.5246 25.1254 19.95 25.65 19.95H29.1109C29.3136 20.5734 29.5651 21.1802 29.8624 21.7646L27.4113 24.2069C27.2323 24.385 27.1316 24.6276 27.1316 24.88C27.1316 25.1328 27.2323 25.3749 27.4113 25.5531L31.4451 29.5803C31.8162 29.951 32.4174 29.951 32.7885 29.5803L35.2317 27.1376C35.8175 27.435 36.4256 27.6859 37.05 27.8891V31.35C37.05 31.8746 37.4754 32.3 38 32.3H43.7C44.2246 32.3 44.65 31.8746 44.65 31.35V27.8891C45.2739 27.6859 45.8807 27.435 46.4656 27.1376L48.9088 29.5803C49.2799 29.9505 49.8801 29.9505 50.2512 29.5803L54.2887 25.5521C54.4678 25.374 54.5684 25.1319 54.5684 24.8791C54.5684 24.6262 54.4678 24.3841 54.2887 24.206L51.8376 21.7637C52.135 21.1797 52.3864 20.573 52.5891 19.95H56.05ZM50.9619 18.7579C50.7118 19.7037 50.3356 20.6115 49.8425 21.4566C49.625 21.8301 49.6867 22.3032 49.9928 22.608L52.2727 24.8804L49.5814 27.5662L47.3098 25.2919C47.0051 24.9867 46.5324 24.9254 46.1594 25.1425C45.3147 25.6356 44.4065 26.0118 43.4607 26.2609C43.0423 26.3699 42.7505 26.7475 42.75 27.1794V30.4H38.95V27.1794C38.95 26.748 38.6592 26.3708 38.2422 26.2609C37.2963 26.0118 36.3881 25.6356 35.5434 25.1425C35.1704 24.9254 34.6977 24.9867 34.393 25.2919L32.1196 27.5653L29.4282 24.8804L31.7081 22.608C32.0143 22.3032 32.076 21.8301 31.8584 21.4566C31.3653 20.6115 30.9891 19.7037 30.7391 18.7579C30.6292 18.3408 30.252 18.05 29.8206 18.05H26.6V14.25H29.8206C30.2516 14.2495 30.6282 13.9592 30.7382 13.5421C30.9882 12.5963 31.3644 11.6885 31.8575 10.8434C32.075 10.4699 32.0133 9.9968 31.7072 9.69204L29.4273 7.41863L32.1196 4.72634L34.393 7.00625C34.6977 7.3124 35.1709 7.3741 35.5443 7.15654C36.389 6.66345 37.2973 6.28726 38.2431 6.03816C38.6596 5.92776 38.9495 5.5511 38.95 5.12063V1.9H42.75V5.12063C42.75 5.55203 43.0409 5.92915 43.4579 6.03909C44.4037 6.28818 45.312 6.66438 46.1567 7.15747C46.5305 7.37595 47.0046 7.31426 47.3098 7.00718L49.5832 4.72727L52.2755 7.41956L49.9956 9.69297C49.6895 9.99773 49.6278 10.4709 49.8458 10.8443C50.3384 11.6895 50.7146 12.5972 50.9646 13.5431C51.0746 13.9587 51.4498 14.2486 51.8794 14.25H55.1V18.05H51.8794C51.4485 18.0505 51.0718 18.3408 50.9619 18.7579Z" fill="#FE3861"/>
<path d="M40.85 12.35C38.7515 12.35 37.05 14.0514 37.05 16.15C37.05 18.2485 38.7515 19.95 40.85 19.95C42.9485 19.95 44.65 18.2485 44.65 16.15C44.65 14.0514 42.9485 12.35 40.85 12.35ZM40.85 18.05C39.8007 18.05 38.95 17.1992 38.95 16.15C38.95 15.1007 39.8007 14.25 40.85 14.25C41.8993 14.25 42.75 15.1007 42.75 16.15C42.75 17.1992 41.8993 18.05 40.85 18.05Z" fill="#FE3861"/>
</g>
<defs>
<clipPath id="clip0">
<rect width="57" height="57" fill="white"/>
</clipPath>
</defs>
</svg>
