<svg width="58" height="58" viewBox="0 0 58 58" fill="none" xmlns="http://www.w3.org/2000/svg">
<path d="M58 21.5161C58 14.0939 52.2048 8.01602 44.9032 7.53138V0H0V50.5161H39.2903V53.3226C39.2903 55.9016 41.3888 58 43.9677 58C46.5467 58 48.6452 55.9016 48.6452 53.3226V39.2903H46.7742V35.2661C53.1709 33.962 58 28.2929 58 21.5161ZM56.129 21.5161C56.129 28.2216 50.6733 33.6774 43.9677 33.6774C37.2622 33.6774 31.8065 28.2216 31.8065 21.5161C31.8065 14.8106 37.2622 9.35484 43.9677 9.35484C50.6733 9.35484 56.129 14.8106 56.129 21.5161ZM39.2903 39.2903V48.6452H1.87097V1.87097H43.0323V7.53138C35.7306 8.01602 29.9355 14.0939 29.9355 21.5161C29.9355 28.2929 34.7646 33.962 41.1613 35.2661V39.2903H39.2903ZM46.7742 53.3226C46.7742 54.8697 45.5149 56.129 43.9677 56.129C42.4206 56.129 41.1613 54.8697 41.1613 53.3226V41.1613H46.7742V53.3226ZM44.9032 39.2903H43.0323V35.5009C43.3429 35.5214 43.6516 35.5484 43.9677 35.5484C44.2838 35.5484 44.5926 35.5214 44.9032 35.5009V39.2903Z" fill="#FE3861"/>
<path d="M33.6774 21.5162C33.6774 27.1898 38.2941 31.8065 43.9677 31.8065C49.6414 31.8065 54.2581 27.1898 54.2581 21.5162C54.2581 15.8425 49.6414 11.2258 43.9677 11.2258C38.2941 11.2258 33.6774 15.8425 33.6774 21.5162ZM52.3871 21.5162C52.3871 26.1589 48.6095 29.9355 43.9677 29.9355C39.3259 29.9355 35.5484 26.1589 35.5484 21.5162C35.5484 16.8734 39.3259 13.0968 43.9677 13.0968C48.6095 13.0968 52.3871 16.8734 52.3871 21.5162Z" fill="#FE3861"/>
<path d="M44.9032 53.3226C44.9032 53.8392 44.4844 54.2581 43.9677 54.2581C43.4511 54.2581 43.0323 53.8392 43.0323 53.3226C43.0323 52.806 43.4511 52.3871 43.9677 52.3871C44.4844 52.3871 44.9032 52.806 44.9032 53.3226Z" fill="#FE3861"/>
<path d="M40.7452 23.5442L39.7065 25.1009L43.3954 27.5593L48.547 17.2567L46.8724 16.4208L42.6691 24.8278L40.7452 23.5442Z" fill="#FE3861"/>
<path d="M16.7665 31.2309L15.0399 30.511L13.7207 33.6774H3.74194V46.7742H18.7097V33.6774H15.747L16.7665 31.2309ZM16.8387 35.5484V44.9033H5.61291V35.5484H12.9415L10.9001 40.4474L9.08169 38.6289L7.75886 39.9518L11.5533 43.7462L14.9677 35.5484H16.8387Z" fill="#FE3861"/>
<path d="M16.7665 13.4567L15.0399 12.7368L13.7207 15.9032H3.74194V29H18.7097V15.9032H15.747L16.7665 13.4567ZM16.8387 17.7742V27.129H5.61291V17.7742H12.9415L10.9001 22.6731L9.08169 20.8547L7.75886 22.1775L11.5533 25.972L14.9677 17.7742H16.8387Z" fill="#FE3861"/>
<path d="M26.1935 7.48389H28.0645V9.35485H26.1935V7.48389Z" fill="#FE3861"/>
<path d="M3.74194 7.48389H24.3226V9.35485H3.74194V7.48389Z" fill="#FE3861"/>
<path d="M20.5806 33.6774H31.8064V35.5484H20.5806V33.6774Z" fill="#FE3861"/>
<path d="M20.5806 37.4194H31.8064V39.2903H20.5806V37.4194Z" fill="#FE3861"/>
<path d="M20.5806 41.1613H31.8064V43.0323H20.5806V41.1613Z" fill="#FE3861"/>
<path d="M20.5806 44.9032H31.8064V46.7742H20.5806V44.9032Z" fill="#FE3861"/>
<path d="M20.5806 15.9032H28.0645V17.7742H20.5806V15.9032Z" fill="#FE3861"/>
<path d="M20.5806 19.6451H28.0645V21.5161H20.5806V19.6451Z" fill="#FE3861"/>
<path d="M20.5806 23.3871H28.0645V25.2581H20.5806V23.3871Z" fill="#FE3861"/>
<path d="M20.5806 27.129H28.0645V29H20.5806V27.129Z" fill="#FE3861"/>
<path d="M3.74194 3.74194H28.0645V5.61291H3.74194V3.74194Z" fill="#FE3861"/>
</svg>
