<svg width="150" height="86" viewBox="0 0 150 86" fill="none" xmlns="http://www.w3.org/2000/svg">
<path d="M18.8623 55.72C29.2423 55.72 35.7823 50.2 35.7823 41.56C35.7823 33.52 29.6623 28.54 22.8823 28.54C19.3423 28.54 16.2223 29.86 14.3023 31.72V23.98H33.0223V14.98H3.98227V38.62L11.1223 40.36C13.3423 38.26 15.8623 37.36 19.0423 37.36C23.1823 37.36 25.2823 39.28 25.2823 41.98C25.2823 44.44 23.1223 46.6 18.7423 46.6C14.9023 46.6 11.1223 45.22 8.36227 42.7L2.72227 49.9C6.44227 53.56 11.7823 55.72 18.8623 55.72ZM56.0735 55.72C67.7735 55.72 73.2335 45.58 73.2335 35.02C73.2335 24.46 67.7735 14.38 56.0735 14.38C44.3735 14.38 38.9135 24.46 38.9135 35.02C38.9135 45.58 44.3735 55.72 56.0735 55.72ZM56.0735 46.6C51.2735 46.6 49.3535 42.1 49.3535 35.02C49.3535 27.94 51.2735 23.5 56.0735 23.5C60.8735 23.5 62.7935 27.94 62.7935 35.02C62.7935 42.1 60.8735 46.6 56.0735 46.6ZM93.5149 55.72C105.215 55.72 110.675 45.58 110.675 35.02C110.675 24.46 105.215 14.38 93.5149 14.38C81.8149 14.38 76.3549 24.46 76.3549 35.02C76.3549 45.58 81.8149 55.72 93.5149 55.72ZM93.5149 46.6C88.7149 46.6 86.7949 42.1 86.7949 35.02C86.7949 27.94 88.7149 23.5 93.5149 23.5C98.3149 23.5 100.235 27.94 100.235 35.02C100.235 42.1 98.3149 46.6 93.5149 46.6ZM130.956 55.72C142.656 55.72 148.116 45.58 148.116 35.02C148.116 24.46 142.656 14.38 130.956 14.38C119.256 14.38 113.796 24.46 113.796 35.02C113.796 45.58 119.256 55.72 130.956 55.72ZM130.956 46.6C126.156 46.6 124.236 42.1 124.236 35.02C124.236 27.94 126.156 23.5 130.956 23.5C135.756 23.5 137.676 27.94 137.676 35.02C137.676 42.1 135.756 46.6 130.956 46.6Z" fill="#FE3861"/>
<path d="M102.29 80.36C106.04 80.36 108.71 77.51 108.71 72.74C108.71 67.97 106.04 65.15 102.29 65.15C100.4 65.15 98.7202 66.05 97.6402 67.49V65.51H94.4902V85.52H97.6402V77.99C98.8102 79.55 100.46 80.36 102.29 80.36ZM101.36 77.57C99.8902 77.57 98.3302 76.67 97.6402 75.62V69.89C98.3302 68.81 99.8902 67.94 101.36 67.94C103.85 67.94 105.44 69.95 105.44 72.74C105.44 75.56 103.85 77.57 101.36 77.57ZM111.204 85.67C111.654 85.79 112.524 85.88 112.974 85.88C115.224 85.85 116.964 85.07 117.954 82.61L124.944 65.51H121.554L117.324 76.37L113.094 65.51H109.734L115.674 80.18L114.954 81.83C114.534 82.79 113.874 83.09 112.884 83.09C112.524 83.09 112.014 83 111.684 82.85L111.204 85.67ZM133.462 77.57C130.792 77.57 129.292 75.32 129.292 72.68C129.292 70.19 130.792 67.94 133.462 67.94C136.162 67.94 137.662 70.19 137.662 72.68C137.662 75.32 136.162 77.57 133.462 77.57ZM133.462 80.36C138.172 80.36 140.902 76.79 140.902 72.71C140.902 68.69 138.172 65.15 134.062 65.15C131.962 65.15 130.012 66.11 128.842 67.7C129.232 65.93 130.732 64.22 134.212 63.83C136.612 63.56 140.392 62.81 140.392 59.99H137.302C137.302 60.53 136.432 60.89 133.342 61.34C128.482 61.94 126.052 65.03 126.052 72.08C126.052 76.79 128.782 80.36 133.462 80.36ZM145.856 80.33C146.996 80.33 147.956 79.37 147.956 78.23C147.956 77.09 146.996 76.13 145.856 76.13C144.716 76.13 143.756 77.09 143.756 78.23C143.756 79.37 144.716 80.33 145.856 80.33Z" fill="#FE3861"/>
</svg>
