<svg width="143" height="90" viewBox="0 0 143 90" fill="none" xmlns="http://www.w3.org/2000/svg">
<path d="M51.115 83V69.5H29.155C44.095 59.06 50.665 51.23 50.665 42.05C50.665 29.99 40.495 22.07 26.365 22.07C17.995 22.07 8.45496 25.04 2.06496 32.06L10.615 42.32C14.935 38.27 19.975 35.75 26.635 35.75C31.045 35.75 34.915 37.91 34.915 42.05C34.915 47.99 30.055 52.13 4.04496 70.94V83H51.115ZM82.8329 84.08C100.383 84.08 108.573 68.87 108.573 53.03C108.573 37.19 100.383 22.07 82.8329 22.07C65.2829 22.07 57.0929 37.19 57.0929 53.03C57.0929 68.87 65.2829 84.08 82.8329 84.08ZM82.8329 70.4C75.6329 70.4 72.7529 63.65 72.7529 53.03C72.7529 42.41 75.6329 35.75 82.8329 35.75C90.0329 35.75 92.9129 42.41 92.9129 53.03C92.9129 63.65 90.0329 70.4 82.8329 70.4Z" fill="#FE3861"/>
<path d="M119.91 67.28C124.19 67.28 126.95 64.36 126.95 60.64C126.95 56.88 124.19 53.92 119.91 53.92C115.71 53.92 112.99 56.88 112.99 60.64C112.99 64.36 115.71 67.28 119.91 67.28ZM120.71 81L137.79 54.32H134.31L117.27 81H120.71ZM134.99 81.48C139.23 81.48 141.99 78.56 141.99 74.84C141.99 71.08 139.23 68.12 134.99 68.12C130.79 68.12 128.07 71.08 128.07 74.84C128.07 78.56 130.79 81.48 134.99 81.48ZM119.91 63.6C118.39 63.6 117.23 62.56 117.23 60.64C117.23 58.64 118.39 57.6 119.91 57.6C121.47 57.6 122.67 58.64 122.67 60.64C122.67 62.56 121.47 63.6 119.91 63.6ZM134.99 77.8C133.43 77.8 132.31 76.8 132.31 74.84C132.31 72.84 133.43 71.8 134.99 71.8C136.55 71.8 137.75 72.84 137.75 74.84C137.75 76.8 136.55 77.8 134.99 77.8Z" fill="#FE3861"/>
</svg>
