<svg width="127" height="90" viewBox="0 0 127 90" fill="none" xmlns="http://www.w3.org/2000/svg">
<path d="M34.9296 83V22.97H21.5196L0.549609 43.67L9.36961 52.94L19.4496 42.77V83H34.9296ZM68.1635 84.08C83.7335 84.08 93.5435 75.8 93.5435 62.84C93.5435 50.78 84.3635 43.31 74.1935 43.31C68.8835 43.31 64.2035 45.29 61.3235 48.08V36.47H89.4035V22.97H45.8435V58.43L56.5535 61.04C59.8835 57.89 63.6635 56.54 68.4335 56.54C74.6435 56.54 77.7935 59.42 77.7935 63.47C77.7935 67.16 74.5535 70.4 67.9835 70.4C62.2235 70.4 56.5535 68.33 52.4135 64.55L43.9535 75.35C49.5335 80.84 57.5435 84.08 68.1635 84.08Z" fill="#FE3861"/>
<path d="M103.91 67.28C108.19 67.28 110.95 64.36 110.95 60.64C110.95 56.88 108.19 53.92 103.91 53.92C99.7103 53.92 96.9903 56.88 96.9903 60.64C96.9903 64.36 99.7103 67.28 103.91 67.28ZM104.71 81L121.79 54.32H118.31L101.27 81H104.71ZM118.99 81.48C123.23 81.48 125.99 78.56 125.99 74.84C125.99 71.08 123.23 68.12 118.99 68.12C114.79 68.12 112.07 71.08 112.07 74.84C112.07 78.56 114.79 81.48 118.99 81.48ZM103.91 63.6C102.39 63.6 101.23 62.56 101.23 60.64C101.23 58.64 102.39 57.6 103.91 57.6C105.47 57.6 106.67 58.64 106.67 60.64C106.67 62.56 105.47 63.6 103.91 63.6ZM118.99 77.8C117.43 77.8 116.31 76.8 116.31 74.84C116.31 72.84 117.43 71.8 118.99 71.8C120.55 71.8 121.75 72.84 121.75 74.84C121.75 76.8 120.55 77.8 118.99 77.8Z" fill="#FE3861"/>
</svg>
