<svg width="51" height="50" viewBox="0 0 51 50" fill="none" xmlns="http://www.w3.org/2000/svg">
<g clip-path="url(#clip0)">
<path d="M8.9699 38.6669C8.25591 38.6669 7.56953 38.8416 6.96059 39.1697C3.75286 35.1383 1.99219 30.1304 1.99219 25C1.99219 12.2917 12.5376 1.95312 25.5 1.95312C27.0759 1.95312 28.6509 2.10686 30.1816 2.41013C30.7202 2.51694 31.2462 2.17514 31.3552 1.64642C31.4641 1.11771 31.1155 0.602722 30.5762 0.495529C28.9159 0.166702 27.2081 0 25.5 0C18.6888 0 12.285 2.60048 7.46876 7.32231C2.65249 12.0441 0 18.3224 0 25C0 30.6171 1.9455 36.0989 5.48746 40.4934C5.03144 41.1613 4.78631 41.9464 4.78631 42.7685C4.78631 43.8641 5.22171 44.894 6.01197 45.6684C6.80184 46.4432 7.85241 46.87 8.9699 46.87C10.0874 46.87 11.138 46.4432 11.9282 45.6684C12.7185 44.894 13.1535 43.8637 13.1535 42.7681C13.1535 41.6729 12.7185 40.6425 11.9282 39.8682C11.138 39.0934 10.0874 38.6669 8.9699 38.6669ZM10.5193 44.2875C10.1057 44.6934 9.55511 44.9169 8.9699 44.9169C8.3847 44.9169 7.83451 44.6934 7.42051 44.2875C7.00651 43.8816 6.7785 43.3422 6.7785 42.7685C6.7785 42.1944 7.00651 41.655 7.42051 41.2491C7.83412 40.8432 8.3847 40.62 8.9699 40.62C9.55511 40.62 10.1053 40.8436 10.5193 41.2491C10.9333 41.655 11.1613 42.1944 11.1613 42.7685C11.1613 43.3422 10.9333 43.8816 10.5193 44.2875Z" fill="#BACAD5"/>
<path d="M45.5118 9.50539C46.5946 7.91275 46.4207 5.73532 44.9884 4.33113C44.1982 3.55675 43.1476 3.12988 42.0301 3.12988C40.9126 3.12988 39.8621 3.55675 39.0718 4.33113C38.2815 5.1059 37.8465 6.13586 37.8465 7.23144C37.8465 8.32703 38.2815 9.35699 39.0718 10.1318C39.8621 10.9065 40.9126 11.333 42.0301 11.333C42.7441 11.333 43.4305 11.1583 44.0394 10.8302C47.2472 14.862 49.0078 19.8695 49.0078 24.9999C49.0078 37.7082 38.4625 48.0468 25.5 48.0468C23.9397 48.0468 22.3794 47.8961 20.8631 47.5986C20.3238 47.4929 19.7989 47.8358 19.6908 48.3646C19.583 48.8937 19.9328 49.4079 20.4721 49.5139C22.1168 49.8363 23.8086 49.9999 25.5 49.9999C32.3112 49.9999 38.715 47.3994 43.5313 42.6776C48.3475 37.9558 51 31.6775 51 24.9999C51 19.3824 49.0541 13.9003 45.5118 9.50539ZM40.4807 8.75084C40.0667 8.34495 39.8387 7.80556 39.8387 7.23144C39.8387 6.65771 40.0667 6.11832 40.4807 5.71243C40.8943 5.30655 41.4449 5.08301 42.0301 5.08301C42.6153 5.08301 43.1659 5.30655 43.5799 5.71243C44.434 6.55014 44.434 7.91313 43.5799 8.75084C43.1659 9.15634 42.6153 9.37988 42.0301 9.37988C41.4445 9.37988 40.8943 9.15634 40.4807 8.75084Z" fill="#BACAD5"/>
<path d="M21.3896 41.7969C21.3896 42.3363 21.8359 42.7734 22.3857 42.7734H28.614C29.1641 42.7734 29.6101 42.3363 29.6101 41.7969V39.9036C30.9198 39.558 32.1719 39.0491 33.3485 38.3846L34.7119 39.7213C34.8987 39.9044 35.152 40.0074 35.4166 40.0074C35.6804 40.0074 35.9341 39.9044 36.1208 39.7209L40.5231 35.4019C40.9118 35.0204 40.9118 34.4021 40.5231 34.021L39.1613 32.6859C39.8391 31.5323 40.3581 30.3047 40.7107 29.0207H42.6344C43.1846 29.0207 43.6305 28.5835 43.6305 28.0441V21.9379C43.6305 21.3985 43.1846 20.9614 42.6344 20.9614H40.7103C40.3577 19.6777 39.8391 18.4502 39.1613 17.2966L40.5157 15.9687C40.7025 15.7856 40.8075 15.5369 40.8075 15.2779C40.8072 15.0188 40.7021 14.7701 40.5153 14.587L36.1096 10.2711C35.7209 9.88998 35.0901 9.88998 34.701 10.2715L33.3485 11.5978C32.1719 10.9333 30.9198 10.4244 29.6101 10.0788V8.20312C29.6101 7.66373 29.1641 7.22656 28.614 7.22656H22.3857C21.8359 7.22656 21.3896 7.66373 21.3896 8.20312V10.0792C20.0802 10.4244 18.8281 10.9333 17.6515 11.5978L16.2986 10.2715C15.9099 9.89037 15.2791 9.88998 14.89 10.2711L10.4847 14.5874C10.2975 14.7705 10.1925 15.0188 10.1925 15.2779C10.1925 15.5369 10.2975 15.7856 10.4843 15.9687L11.8387 17.2966C11.1609 18.4502 10.6419 19.6774 10.2893 20.9614H8.36913C7.81895 20.9614 7.37304 21.3985 7.37304 21.9376L7.36954 28.0437C7.36915 28.3028 7.47421 28.5515 7.66097 28.7346C7.84774 28.9177 8.10104 29.0207 8.36563 29.0207H10.2893C10.6419 30.3047 11.1609 31.5323 11.8387 32.6859L10.4769 34.021C10.0882 34.4021 10.0878 35.0204 10.4769 35.4019L14.8792 39.7209C15.0659 39.904 15.3192 40.0074 15.5834 40.0074H15.5838C15.848 40.0074 16.1013 39.9044 16.2881 39.7213L17.6511 38.3846C18.8281 39.0491 20.0802 39.558 21.3896 39.9036V41.7969ZM18.0417 36.3308C17.6476 36.0809 17.1289 36.1351 16.7966 36.4605L15.5838 37.6495L12.5897 34.7118L13.8013 33.5236C14.1332 33.1982 14.1885 32.6897 13.9336 32.3032C13.0305 30.933 12.3955 29.4312 12.0469 27.8389C11.9481 27.3891 11.5426 27.0676 11.073 27.0676H9.36212L9.36445 22.9145H11.073C11.5426 22.9145 11.9481 22.5933 12.0469 22.1432C12.3955 20.5513 13.0305 19.0495 13.9336 17.6792C14.1885 17.2928 14.1332 16.7843 13.8013 16.4589L12.5975 15.2782L15.5939 12.3428L16.7966 13.5223C17.1289 13.8477 17.6472 13.9015 18.0417 13.652C19.439 12.7666 20.9709 12.1441 22.595 11.8023C23.0537 11.7054 23.3817 11.3075 23.3817 10.8475V9.17969H27.6179V10.8471C27.6179 11.3075 27.9455 11.7054 28.4046 11.8019C30.0283 12.1441 31.5606 12.7663 32.9579 13.6517C33.352 13.9015 33.8707 13.8477 34.2026 13.522L35.4057 12.3428L38.4021 15.2782L37.1983 16.4585C36.866 16.7843 36.8111 17.2928 37.066 17.6792C37.9691 19.0495 38.6037 20.5513 38.9527 22.1432C39.0512 22.5933 39.457 22.9145 39.9266 22.9145H41.6383V27.0676H39.9266C39.457 27.0676 39.0515 27.3891 38.9527 27.8389C38.6041 29.4308 37.9691 30.933 37.066 32.3029C36.8111 32.6897 36.8664 33.1982 37.1983 33.5236L38.4099 34.7115L35.4158 37.6492L34.203 36.4605C33.8707 36.1347 33.352 36.0809 32.9579 36.3308C31.5602 37.2162 30.0283 37.8384 28.4046 38.1805C27.9455 38.2774 27.6179 38.6749 27.6179 39.1354V40.8203H23.3817V39.1354C23.3817 38.6753 23.0537 38.2774 22.595 38.1805C20.9713 37.8387 19.4394 37.2162 18.0417 36.3308Z" fill="#BACAD5"/>
<path d="M33.7306 24.9999C33.7306 20.5504 30.0384 16.9307 25.5 16.9307C20.9615 16.9307 17.2694 20.5504 17.2694 24.9999C17.2694 29.4494 20.9615 33.0691 25.5 33.0691C30.0384 33.0691 33.7306 29.4494 33.7306 24.9999ZM19.2616 24.9999C19.2616 21.6273 22.06 18.8838 25.5 18.8838C28.94 18.8838 31.7384 21.6277 31.7384 24.9999C31.7384 28.3721 28.94 31.116 25.5 31.116C22.06 31.116 19.2616 28.3725 19.2616 24.9999Z" fill="#BACAD5"/>
<path d="M34.6718 3.69353C34.9341 3.69353 35.1909 3.589 35.3761 3.40742C35.5613 3.2247 35.6679 2.97293 35.6679 2.71582C35.6679 2.46024 35.5617 2.20808 35.3761 2.02536C35.1909 1.84378 34.9341 1.73926 34.6718 1.73926C34.4088 1.73926 34.1532 1.84378 33.968 2.02536C33.7824 2.20808 33.6758 2.45909 33.6758 2.71582C33.6758 2.97369 33.7824 3.2247 33.968 3.40742C34.1532 3.589 34.4088 3.69353 34.6718 3.69353Z" fill="#BACAD5"/>
<path d="M16.3717 46.3242C16.1099 46.3242 15.8527 46.4287 15.6675 46.6103C15.4823 46.7919 15.3756 47.0441 15.3756 47.3008C15.3756 47.5587 15.4823 47.8097 15.6675 47.9912C15.8527 48.1728 16.1099 48.2773 16.3717 48.2773C16.6336 48.2773 16.8908 48.1728 17.076 47.9912C17.2612 47.8097 17.3678 47.5575 17.3678 47.3008C17.3678 47.0441 17.2612 46.7919 17.076 46.6103C16.8908 46.4287 16.6336 46.3242 16.3717 46.3242Z" fill="#BACAD5"/>
</g>
<defs>
<clipPath id="clip0">
<rect width="51" height="50" fill="white"/>
</clipPath>
</defs>
</svg>
