<svg width="50" height="50" viewBox="0 0 50 50" fill="none" xmlns="http://www.w3.org/2000/svg">
<g clip-path="url(#clip0)">
<path d="M15.5919 29.6753C15.9436 30.2061 16.129 30.8196 16.129 31.4512C16.129 33.2303 14.6823 34.677 12.9032 34.677C12.2716 34.677 11.6581 34.4916 11.1273 34.1399L10.237 35.4851C11.0324 36.0115 11.9542 36.2899 12.9032 36.2899C15.5718 36.2899 17.7419 34.1198 17.7419 31.4512C17.7419 30.5022 17.4635 29.5804 16.9371 28.7842L15.5919 29.6753Z" fill="#BACAD5"/>
<path d="M12.9032 28.2262C13.5348 28.2262 14.1491 28.4117 14.6784 28.7625L15.5695 27.4182C14.7748 26.8917 13.8534 26.6133 12.9032 26.6133C10.2346 26.6133 8.06451 28.7834 8.06451 31.452C8.06451 32.401 8.34291 33.3228 8.86939 34.119L10.2145 33.2287C9.86289 32.6971 9.67742 32.0836 9.67742 31.452C9.67742 29.6729 11.1241 28.2262 12.9032 28.2262Z" fill="#BACAD5"/>
<path d="M29.0323 33.8711V38.7098H32.2581V37.0969H30.6452V33.8711H29.0323Z" fill="#BACAD5"/>
<path d="M29.8387 29.0322C27.7978 29.0322 25.8041 29.7434 24.225 31.0354L25.2477 32.284C26.329 31.3984 27.6509 30.8515 29.0322 30.6959V32.258H30.6451V30.6928C34.0041 31.0661 36.6758 33.7386 37.0491 37.0967H35.4839V38.7096H37.046C36.8904 40.0918 36.3435 41.4129 35.4579 42.495L36.7057 43.5169C37.9977 41.9378 38.7097 39.9441 38.7097 37.9032C38.7097 33.0121 34.7298 29.0322 29.8387 29.0322Z" fill="#BACAD5"/>
<path d="M30.6452 45.11V43.5479H29.0323V45.1131C25.6734 44.7398 23.0016 42.0673 22.6283 38.7092H24.1935V37.0963H22.6314C22.787 35.7141 23.3339 34.393 24.2195 33.3109L22.9717 32.2891C21.6797 33.8681 20.9677 35.8618 20.9677 37.9027C20.9677 42.7938 24.9476 46.7737 29.8387 46.7737C31.8796 46.7737 33.8733 46.0625 35.4524 44.7706L34.4297 43.5219C33.3484 44.4075 32.0273 44.9544 30.6452 45.11Z" fill="#BACAD5"/>
<path d="M45.1613 37.0967H43.5484V14.5161H38.7097V29.7063C38.2171 29.1732 37.6776 28.6861 37.0968 28.2482V18.5483H32.2581V26.0497C31.7332 25.9426 31.1921 25.8832 30.6452 25.8466V22.5806H25.8065V26.512C24.9953 26.7999 24.2243 27.1716 23.5025 27.6178C23.3402 27.1685 23.1615 26.7274 22.9453 26.3065L24.2203 24.5207L19.8341 20.1329L18.0475 21.4087C17.5096 21.1339 16.9477 20.9015 16.3669 20.7153L16.0066 18.5483H9.80067L9.44037 20.7153C8.85955 20.9015 8.29763 21.1339 7.75973 21.4087L5.97357 20.1329L1.58691 24.5207L2.86196 26.3065C2.58632 26.8436 2.35399 27.4055 2.16773 27.9871L0 28.349V34.5541L2.16694 34.9152C2.3532 35.4968 2.58632 36.0587 2.86117 36.5958L1.58613 38.3812L5.97239 42.7694L7.75895 41.4936C8.29684 41.7685 8.85876 42.0008 9.43958 42.187L9.79988 44.3548H16.0058L16.3661 42.1878C16.9469 42.0016 17.5088 41.7692 18.0467 41.4944L18.3692 41.7248C19.975 46.5257 24.505 49.9999 29.8387 49.9999C36.2372 49.9999 41.4767 45.0041 41.8945 38.7096H50V8.06445H45.1613V37.0967ZM40.3226 16.129H41.9355V37.0967H41.8945C41.7693 35.2121 41.2153 33.446 40.3226 31.8942V16.129ZM33.871 20.1612H35.4839V27.213C34.9684 26.9393 34.4274 26.7105 33.871 26.5128V20.1612ZM27.4194 24.1935H29.0323V25.8473C28.4853 25.884 27.9443 25.9434 27.4194 26.0509V24.1935ZM17.7057 39.8453C17.0009 40.2493 16.2405 40.5635 15.4427 40.7797L14.9434 40.9152L14.6386 42.7419H11.1671L10.8623 40.9152L10.363 40.7797C9.56598 40.5635 8.80481 40.2493 8.09996 39.8453L7.65066 39.5877L6.14683 40.6627L3.69125 38.2079L4.76625 36.7025L4.50873 36.2532C4.1055 35.55 3.79048 34.7896 3.5743 33.991L3.43963 33.4917L1.6129 33.1877V29.7154L3.43963 29.4114L3.57509 28.9121C3.79284 28.1127 4.10629 27.3516 4.50951 26.6499L4.76704 26.2006L3.69204 24.6952L6.14762 22.2404L7.65145 23.3154L8.10074 23.0578C8.8056 22.6538 9.56598 22.3396 10.3638 22.1234L10.8631 21.988L11.1679 20.1612H14.6394L14.9442 21.988L15.4435 22.1234C16.2405 22.3396 17.0016 22.6538 17.7065 23.0578L18.1558 23.3154L19.6596 22.2404L22.1152 24.6952L21.0402 26.2006L21.2977 26.6499C21.6458 27.2563 21.9136 27.9135 22.1243 28.5943C21.6525 28.9861 21.2194 29.4209 20.8122 29.878C20.0774 26.1821 16.8114 23.387 12.9032 23.387C8.45632 23.387 4.83871 27.0046 4.83871 31.4516C4.83871 35.8985 8.45632 39.5161 12.9032 39.5161C14.6646 39.5161 16.359 38.9203 17.7427 37.8815C17.7427 37.8886 17.7419 37.8961 17.7419 37.9032C17.7419 38.5281 17.8042 39.1369 17.8959 39.7362L17.7057 39.8453ZM19.3348 31.9264C18.7276 32.9904 18.2727 34.1501 18.0097 35.383C16.7918 36.9613 14.8977 37.9032 12.9032 37.9032C9.34586 37.9032 6.45161 35.0089 6.45161 31.4516C6.45161 27.8942 9.34586 24.9999 12.9032 24.9999C16.4606 24.9999 19.3548 27.8942 19.3548 31.4516C19.3548 31.6122 19.3458 31.7693 19.3348 31.9264ZM29.8387 48.387C24.0581 48.387 19.3548 43.6838 19.3548 37.9032C19.3548 32.1225 24.0581 27.4193 29.8387 27.4193C35.6193 27.4193 40.3226 32.1225 40.3226 37.9032C40.3226 43.6838 35.6193 48.387 29.8387 48.387ZM46.7742 9.67736H48.3871V37.0967H46.7742V9.67736Z" fill="#BACAD5"/>
<path d="M45.1613 0V1.6129H46.8943L41.1889 6.17755L38.7097 3.69834L34.9074 7.50063C34.592 7.34903 34.2435 7.25806 33.871 7.25806C32.5373 7.25806 31.4516 8.3437 31.4516 9.67742C31.4516 10.0944 31.5678 10.4815 31.754 10.8241L27.5387 15.508C27.2532 15.3895 26.9413 15.3226 26.6129 15.3226C26.5975 15.3226 26.5838 15.3265 26.5684 15.3273L23.3257 6.67921C23.8518 6.23543 24.1935 5.57979 24.1935 4.83871C24.1935 3.50499 23.1079 2.41935 21.7742 2.41935C20.4405 2.41935 19.3548 3.50499 19.3548 4.83871C19.3548 5.01276 19.3749 5.18208 19.4104 5.34668L12.7993 9.41438C12.3846 9.07967 11.8637 8.87097 11.2903 8.87097C10.2405 8.87097 9.35334 9.54747 9.01942 10.4839H4.69026C4.35634 9.54747 3.46916 8.87097 2.41935 8.87097C1.08564 8.87097 0 9.95661 0 11.2903C0 12.624 1.08564 13.7097 2.41935 13.7097C3.46916 13.7097 4.35634 13.0332 4.69026 12.0968H9.02021C9.35413 13.0332 10.2413 13.7097 11.2911 13.7097C12.6248 13.7097 13.7105 12.624 13.7105 11.2903C13.7105 11.1163 13.6904 10.947 13.6549 10.7824L20.266 6.71465C20.6799 7.04936 21.2009 7.25806 21.7742 7.25806C21.7896 7.25806 21.8033 7.25413 21.8187 7.25334L25.0614 15.9006C24.5353 16.3452 24.1935 17.0009 24.1935 17.7419C24.1935 19.0757 25.2792 20.1613 26.6129 20.1613C27.9466 20.1613 29.0323 19.0757 29.0323 17.7419C29.0323 17.3249 28.9169 16.9378 28.7298 16.5953L32.9452 11.9113C33.2307 12.0298 33.5426 12.0968 33.871 12.0968C35.2047 12.0968 36.2903 11.0111 36.2903 9.67742C36.2903 9.30491 36.1994 8.95642 36.0478 8.641L38.7097 5.97908L41.0692 8.33858L48.3871 2.48472V4.83871H50V0H45.1613ZM2.41935 12.0968C1.97439 12.0968 1.6129 11.7345 1.6129 11.2903C1.6129 10.8461 1.97439 10.4839 2.41935 10.4839C2.86432 10.4839 3.22581 10.8461 3.22581 11.2903C3.22581 11.7345 2.86432 12.0968 2.41935 12.0968ZM11.2903 12.0968C10.8454 12.0968 10.4839 11.7345 10.4839 11.2903C10.4839 10.8461 10.8454 10.4839 11.2903 10.4839C11.7353 10.4839 12.0968 10.8461 12.0968 11.2903C12.0968 11.7345 11.7353 12.0968 11.2903 12.0968ZM20.9677 4.83871C20.9677 4.39453 21.3292 4.03226 21.7742 4.03226C22.2192 4.03226 22.5806 4.39453 22.5806 4.83871C22.5806 5.28289 22.2192 5.64516 21.7742 5.64516C21.3292 5.64516 20.9677 5.28289 20.9677 4.83871ZM26.6129 18.5484C26.1679 18.5484 25.8065 18.1861 25.8065 17.7419C25.8065 17.2978 26.1679 16.9355 26.6129 16.9355C27.0579 16.9355 27.4194 17.2978 27.4194 17.7419C27.4194 18.1861 27.0579 18.5484 26.6129 18.5484ZM33.871 10.4839C33.426 10.4839 33.0645 10.1216 33.0645 9.67742C33.0645 9.23324 33.426 8.87097 33.871 8.87097C34.3159 8.87097 34.6774 9.23324 34.6774 9.67742C34.6774 10.1216 34.3159 10.4839 33.871 10.4839Z" fill="#BACAD5"/>
</g>
<defs>
<clipPath id="clip0">
<rect width="50" height="50" fill="white"/>
</clipPath>
</defs>
</svg>
