<svg width="51" height="51" viewBox="0 0 51 51" fill="none" xmlns="http://www.w3.org/2000/svg">
<g clip-path="url(#clip0)">
<path d="M1.4382 37.1875L2.56318 35.9125C2.01461 35.4282 1.70021 34.7317 1.7 34V4.25C1.70159 2.8424 2.8424 1.70159 4.25 1.7H46.75C48.1576 1.70159 49.2984 2.8424 49.3 4.25V34C49.2984 35.4076 48.1576 36.5484 46.75 36.55H32.3V38.25H46.75C49.0961 38.2473 50.9973 36.3461 51 34V4.25C50.9973 1.90389 49.0961 0.00265625 46.75 0H4.25C1.90389 0.00265625 0.00265625 1.90389 0 4.25V34C0.00031875 35.2195 0.524025 36.3803 1.4382 37.1875Z" fill="#BACAD5"/>
<path d="M4.25003 3.39941H5.95003V5.09942H4.25003V3.39941Z" fill="#BACAD5"/>
<path d="M7.64999 3.39941H9.34999V5.09942H7.64999V3.39941Z" fill="#BACAD5"/>
<path d="M11.05 3.39941H12.75V5.09942H11.05V3.39941Z" fill="#BACAD5"/>
<path d="M4.25003 6.7998H46.75V8.4998H4.25003V6.7998Z" fill="#BACAD5"/>
<path d="M40.8 11.9004C37.5139 11.9004 34.85 14.5643 34.85 17.8504C34.85 21.1365 37.5139 23.8004 40.8 23.8004C44.0861 23.8004 46.75 21.1365 46.75 17.8504C46.7463 14.5659 44.0846 11.9041 40.8 11.9004ZM40.8 22.1004C38.4528 22.1004 36.55 20.1976 36.55 17.8504C36.55 15.5032 38.4528 13.6004 40.8 13.6004C43.1471 13.6004 45.05 15.5032 45.05 17.8504C45.0473 20.1965 43.1461 22.0977 40.8 22.1004Z" fill="#BACAD5"/>
<path d="M42.749 15.5488L39.95 18.3479L38.8511 17.2488L37.649 18.4509L39.349 20.1509C39.6809 20.4829 40.219 20.4829 40.5511 20.1509L43.9511 16.7509L42.749 15.5488Z" fill="#BACAD5"/>
<path d="M36.55 25.5H45.05V27.2H36.55V25.5Z" fill="#BACAD5"/>
<path d="M36.55 28.8994H45.05V30.5994H36.55V28.8994Z" fill="#BACAD5"/>
<path d="M25.5 11.9004C22.2139 11.9004 19.55 14.5643 19.55 17.8504C19.55 21.1365 22.2139 23.8004 25.5 23.8004C28.7861 23.8004 31.45 21.1365 31.45 17.8504C31.4463 14.5659 28.7846 11.9041 25.5 11.9004ZM25.5 22.1004C23.1528 22.1004 21.25 20.1976 21.25 17.8504C21.25 15.5032 23.1528 13.6004 25.5 13.6004C27.8472 13.6004 29.75 15.5032 29.75 17.8504C29.7473 20.1965 27.8461 22.0977 25.5 22.1004Z" fill="#BACAD5"/>
<path d="M27.4489 15.5488L24.65 18.3479L23.5511 17.2488L22.3489 18.4509L24.0489 20.1509C24.3809 20.4829 24.919 20.4829 25.2511 20.1509L28.6511 16.7509L27.4489 15.5488Z" fill="#BACAD5"/>
<path d="M21.25 25.5H29.75V27.2H21.25V25.5Z" fill="#BACAD5"/>
<path d="M21.25 28.8994H29.75V30.5994H21.25V28.8994Z" fill="#BACAD5"/>
<path d="M10.2 13.6001C11.6255 13.5999 12.9559 14.3148 13.7425 15.5036L15.1582 14.5625C13.3429 11.8238 9.65125 11.0752 6.91255 12.8904C5.24952 13.9926 4.24982 15.8551 4.25003 17.8501C4.25003 18.182 4.27755 18.5134 4.33227 18.8409L6.00889 18.5595C5.96969 18.3252 5.95003 18.0878 5.95003 17.8501C5.95269 15.504 7.85392 13.6028 10.2 13.6001Z" fill="#BACAD5"/>
<path d="M0.849986 50.9999H24.65C24.7865 51 24.9209 50.967 25.0418 50.9037C27.6434 50.5067 30.0262 48.9032 31.1429 46.7499H35.7C35.9254 46.7499 36.1417 46.6604 36.301 46.501L37.4 45.4019L38.4989 46.501C38.6583 46.6604 38.8745 46.7499 39.1 46.7499H40.8C41.0254 46.7499 41.2417 46.6604 41.401 46.501L42.5 45.4019L43.5989 46.501C43.7583 46.6604 43.9745 46.7499 44.2 46.7499H45.9C46.1842 46.7499 46.4495 46.6079 46.6072 46.3715L48.3072 43.8215C48.4976 43.536 48.4976 43.1639 48.3072 42.8784L46.6072 40.3284C46.4495 40.092 46.1842 39.9499 45.9 39.9499H31.1429C29.8498 37.4573 26.861 35.6999 23.8 35.6999C22.2872 35.6983 20.8084 36.1479 19.5524 36.9911L18.971 36.7596C18.8909 36.7285 18.8128 36.6925 18.7373 36.6516C18.7303 36.6478 18.7234 36.6442 18.716 36.641C17.1704 35.8549 16.5547 33.9648 17.3407 32.4191C17.4642 32.1765 17.6187 31.9508 17.8003 31.748C18.9276 30.5015 19.5513 28.8805 19.55 27.1999V24.0464C19.55 21.3326 18.0151 18.8275 15.6424 17.6658C14.8082 17.2532 13.8945 17.0262 12.9642 16.9999C12.0835 16.9701 11.2055 17.115 10.3811 17.4263C9.67872 17.6819 9.02614 18.0576 8.45228 18.5366C6.87298 19.8285 5.95498 21.7595 5.94999 23.7999V27.1999C5.95307 28.8802 6.57644 30.5 7.70046 31.7489C8.66032 32.822 8.76731 34.4105 7.95992 35.6025C7.95631 35.6077 7.9528 35.6131 7.94929 35.6184C7.66263 36.0575 7.26154 36.4098 6.78936 36.6376C6.78022 36.642 6.77119 36.6467 6.76227 36.6516C6.68672 36.6925 6.60863 36.7285 6.52852 36.7596L6.51789 36.7636L2.66516 38.3031C1.05133 38.9494 -0.00490113 40.515 -1.36276e-05 42.2534V50.1499C-1.36276e-05 50.6193 0.380574 50.9999 0.849986 50.9999ZM23.8 37.3999C26.3686 37.3999 28.9531 38.9988 29.8121 41.1187C29.942 41.4398 30.2537 41.6499 30.6 41.6499H45.4451L46.5784 43.3499L45.4451 45.0499H44.552L43.101 43.5989C42.7691 43.2669 42.231 43.2669 41.8989 43.5989L40.448 45.0499H39.452L38.001 43.5989C37.6691 43.2669 37.131 43.2669 36.7989 43.5989L35.348 45.0499H30.6C30.2537 45.0499 29.942 45.2601 29.8121 45.5812C28.9532 47.7015 26.3686 49.2999 23.8 49.2999C20.5139 49.2999 17.85 46.636 17.85 43.3499C17.85 40.0638 20.5139 37.3999 23.8 37.3999ZM1.69999 42.2534C1.6968 41.2097 2.33037 40.2696 3.29894 39.8808L7.14445 38.3442C7.28491 38.2897 7.42197 38.2268 7.55479 38.1556C8.29067 37.7924 8.91659 37.2398 9.36826 36.5546C10.6137 34.7146 10.4462 32.2627 8.96186 30.6093C8.63184 30.2452 8.35761 29.8343 8.14809 29.3898C8.14649 29.3865 8.14479 29.3831 8.1433 29.3799C7.81531 28.7002 7.64659 27.9546 7.64999 27.1999V23.7999C7.65509 22.2711 8.34295 20.8244 9.52551 19.8554C9.53093 19.851 9.53614 19.8467 9.54145 19.8422C9.96826 19.4863 10.4539 19.2075 10.9767 19.0187C11.5937 18.785 12.251 18.6764 12.9104 18.6992C13.5986 18.7182 14.2745 18.886 14.8917 19.191C16.689 20.0711 17.85 21.9768 17.85 24.0464V27.1999C17.851 28.4587 17.3843 29.673 16.5403 30.6069C14.7534 32.5946 14.9162 35.6545 16.9039 37.4414C17.2175 37.7232 17.5665 37.9629 17.9421 38.1543C17.9992 38.1848 18.0564 38.2124 18.1134 38.2393C15.2903 41.3721 15.5414 46.2002 18.6742 49.0231C18.7799 49.1184 18.8883 49.2107 18.9991 49.2999H1.69999V42.2534Z" fill="#BACAD5"/>
<path d="M22.1 45.8998C23.5083 45.8998 24.65 44.7581 24.65 43.3498C24.65 41.9415 23.5083 40.7998 22.1 40.7998C20.6916 40.7998 19.55 41.9415 19.55 43.3498C19.5516 44.7575 20.6923 45.8982 22.1 45.8998ZM22.1 42.4998C22.5694 42.4998 22.95 42.8804 22.95 43.3498C22.95 43.8192 22.5694 44.1998 22.1 44.1998C21.6306 44.1998 21.25 43.8192 21.25 43.3498C21.2505 42.8806 21.6308 42.5003 22.1 42.4998Z" fill="#BACAD5"/>
</g>
<defs>
<clipPath id="clip0">
<rect width="51" height="51" fill="white"/>
</clipPath>
</defs>
</svg>
