<svg width="50" height="50" viewBox="0 0 50 50" fill="none" xmlns="http://www.w3.org/2000/svg">
<path d="M4.83871 45.1611H6.45162V46.774H4.83871V45.1611Z" fill="#BACAD5"/>
<path d="M8.06451 45.1611H9.67742V46.774H8.06451V45.1611Z" fill="#BACAD5"/>
<path d="M11.2903 45.1611H12.9032V46.774H11.2903V45.1611Z" fill="#BACAD5"/>
<path d="M38.7097 45.1611H45.1613V46.774H38.7097V45.1611Z" fill="#BACAD5"/>
<path d="M48.3871 41.9355V15.3226C48.3871 13.0993 46.5781 11.2903 44.3548 11.2903H41.9355C41.9355 5.06434 36.8711 0 30.6452 0C24.4192 0 19.3548 5.06434 19.3548 11.2903H5.64516C3.42191 11.2903 1.6129 13.0993 1.6129 15.3226V41.9355H0V45.9677C0 48.191 1.809 50 4.03226 50H45.9677C48.191 50 50 48.191 50 45.9677V41.9355H48.3871ZM44.3548 12.9032C45.6886 12.9032 46.7742 13.9889 46.7742 15.3226V41.9355H45.1613V16.129C45.1613 15.2395 44.4379 14.5161 43.5484 14.5161H41.4598C41.6153 13.9936 41.7276 13.4541 41.8063 12.9032H44.3548ZM21.4363 8.32677L29.9958 11.8936L32.9267 20.6846C32.1935 20.863 31.4323 20.9677 30.6452 20.9677C25.3087 20.9677 20.9677 16.6268 20.9677 11.2903C20.9677 10.2563 21.1347 9.2612 21.4363 8.32677ZM34.4589 20.1814L31.5678 11.5081L38.0273 5.0482C39.4563 6.73474 40.3226 8.91192 40.3226 11.2903C40.3226 15.2726 37.9032 18.6984 34.4589 20.1814ZM30.6452 1.6129C33.0236 1.6129 35.2007 2.47921 36.8881 3.90743L30.4573 10.3378L22.0613 6.84027C23.6749 3.7389 26.9137 1.6129 30.6452 1.6129ZM3.22581 15.3226C3.22581 13.9889 4.31144 12.9032 5.64516 12.9032H19.484C19.5628 13.4541 19.6742 13.9936 19.8305 14.5161H6.45161C5.56207 14.5161 4.83871 15.2395 4.83871 16.129V41.9355H3.22581V15.3226ZM48.3871 45.9677C48.3871 47.3015 47.3015 48.3871 45.9677 48.3871H4.03226C2.69854 48.3871 1.6129 47.3015 1.6129 45.9677V43.5484H18.2275C19.3871 44.5911 20.8709 45.1613 22.4428 45.1613H27.558C29.1299 45.1613 30.6137 44.5911 31.7733 43.5484H41.9355V41.9355H31.1177L30.8814 42.1717C29.9935 43.0597 28.8137 43.5484 27.5572 43.5484H22.442C21.1863 43.5484 20.0057 43.0597 19.1178 42.1717L18.8823 41.9355H6.45161V16.129H20.4598C22.2767 19.9372 26.1526 22.5806 30.6452 22.5806C35.1377 22.5806 39.0137 19.9372 40.8306 16.129H43.5484V43.5484H48.3871V45.9677Z" fill="#BACAD5"/>
<path d="M39.5161 33.8709C39.0211 33.8709 38.5604 34.0218 38.1765 34.2781L35.363 32.1686C35.4346 31.9403 35.4839 31.7024 35.4839 31.4516C35.4839 30.1179 34.3982 29.0322 33.0645 29.0322C31.7308 29.0322 30.6452 30.1179 30.6452 31.4516C30.6452 31.7292 30.7015 31.9918 30.7877 32.2403L26.2711 35.854C25.901 35.6232 25.4678 35.4838 25 35.4838C24.4574 35.4838 23.9612 35.6701 23.5572 35.9725L20.0798 33.654C20.1282 33.4646 20.1613 33.2692 20.1613 33.0645C20.1613 31.7308 19.0756 30.6451 17.7419 30.6451C16.4082 30.6451 15.3226 31.7308 15.3226 33.0645C15.3226 33.2692 15.3557 33.4646 15.4041 33.654L11.9267 35.9725C11.5226 35.6693 11.0265 35.4838 10.4839 35.4838C9.15015 35.4838 8.06451 36.5695 8.06451 37.9032C8.06451 39.2369 9.15015 40.3225 10.4839 40.3225C11.8176 40.3225 12.9032 39.2369 12.9032 37.9032C12.9032 37.6984 12.8701 37.5031 12.8217 37.3137L16.2991 34.9952C16.7032 35.2984 17.1993 35.4838 17.7419 35.4838C18.2846 35.4838 18.7807 35.2984 19.1847 34.9952L22.6622 37.3137C22.6137 37.5031 22.5806 37.6992 22.5806 37.9032C22.5806 39.2369 23.6663 40.3225 25 40.3225C26.3337 40.3225 27.4193 39.2369 27.4193 37.9032C27.4193 37.6256 27.363 37.3629 27.2768 37.1145L31.7934 33.5008C32.1636 33.7315 32.5967 33.8709 33.0645 33.8709C33.5595 33.8709 34.0202 33.7201 34.4041 33.4638L37.2177 35.5732C37.146 35.8016 37.0968 36.0395 37.0968 36.2903C37.0968 37.624 38.1824 38.7096 39.5161 38.7096C40.8498 38.7096 41.9355 37.624 41.9355 36.2903C41.9355 34.9566 40.8498 33.8709 39.5161 33.8709ZM10.4839 38.7096C10.0397 38.7096 9.67742 38.3474 9.67742 37.9032C9.67742 37.459 10.0397 37.0967 10.4839 37.0967C10.928 37.0967 11.2903 37.459 11.2903 37.9032C11.2903 38.3474 10.928 38.7096 10.4839 38.7096ZM17.7419 33.8709C17.2978 33.8709 16.9355 33.5087 16.9355 33.0645C16.9355 32.6203 17.2978 32.258 17.7419 32.258C18.1861 32.258 18.5484 32.6203 18.5484 33.0645C18.5484 33.5087 18.1861 33.8709 17.7419 33.8709ZM25 38.7096C24.5558 38.7096 24.1935 38.3474 24.1935 37.9032C24.1935 37.459 24.5558 37.0967 25 37.0967C25.4442 37.0967 25.8064 37.459 25.8064 37.9032C25.8064 38.3474 25.4442 38.7096 25 38.7096ZM33.0645 32.258C32.6203 32.258 32.2581 31.8958 32.2581 31.4516C32.2581 31.0074 32.6203 30.6451 33.0645 30.6451C33.5087 30.6451 33.871 31.0074 33.871 31.4516C33.871 31.8958 33.5087 32.258 33.0645 32.258ZM39.5161 37.0967C39.0719 37.0967 38.7097 36.7345 38.7097 36.2903C38.7097 35.8461 39.0719 35.4838 39.5161 35.4838C39.9603 35.4838 40.3226 35.8461 40.3226 36.2903C40.3226 36.7345 39.9603 37.0967 39.5161 37.0967Z" fill="#BACAD5"/>
<path d="M20.9677 17.7422H8.06451V29.0325H20.9677V17.7422ZM19.3548 27.4196H9.67742V19.3551H19.3548V27.4196Z" fill="#BACAD5"/>
<path d="M11.2903 20.9678H17.7419V22.5807H11.2903V20.9678Z" fill="#BACAD5"/>
<path d="M11.2903 24.1934H17.7419V25.8063H11.2903V24.1934Z" fill="#BACAD5"/>
<path d="M22.5806 25.8066H24.1935V27.4195H22.5806V25.8066Z" fill="#BACAD5"/>
<path d="M25.8065 25.8066H41.9355V27.4195H25.8065V25.8066Z" fill="#BACAD5"/>
</svg>
