<svg width="4" height="6" viewBox="0 0 4 6" fill="none" xmlns="http://www.w3.org/2000/svg">
<path d="M3.66676 2.76588L0.996683 0.0958529C0.934927 0.0340485 0.852489 0 0.764587 0C0.676685 0 0.594247 0.0340485 0.532492 0.0958529L0.335859 0.292437C0.207909 0.420533 0.207909 0.628727 0.335859 0.756628L2.57799 2.99876L0.333371 5.24337C0.271616 5.30518 0.237518 5.38757 0.237518 5.47542C0.237518 5.56337 0.271616 5.64576 0.333371 5.70761L0.530004 5.90415C0.591808 5.96595 0.674198 6 0.762099 6C0.850001 6 0.93244 5.96595 0.994195 5.90415L3.66676 3.23168C3.72866 3.16968 3.76266 3.0869 3.76247 2.9989C3.76266 2.91056 3.72866 2.82783 3.66676 2.76588Z" fill="white"/>
</svg>
